<?xml version="1.0" standalone="no"?>
<!DOCTYPE svg PUBLIC "-//W3C//DTD SVG 20010904//EN"
 "http://www.w3.org/TR/2001/REC-SVG-20010904/DTD/svg10.dtd">
<svg version="1.0" xmlns="http://www.w3.org/2000/svg"
 width="200.000000pt" height="200.000000pt" viewBox="0 0 200.000000 200.000000"
 preserveAspectRatio="xMidYMid meet">
<metadata>
Created by potrace 1.16, written by Peter Selinger 2001-2019
</metadata>
<g transform="translate(0.000000,200.000000) scale(0.100000,-0.100000)"
fill="#000000" stroke="none">
<path d="M840 1754 c-188 -63 -323 -94 -452 -101 l-98 -6 -7 -36 c-14 -66 -7
-380 10 -481 39 -231 132 -450 254 -599 37 -46 79 -102 93 -125 114 -192 359
-268 552 -170 68 35 148 111 183 176 16 29 58 92 94 139 143 189 222 409 252
699 11 107 7 297 -7 367 l-6 30 -101 6 c-124 8 -267 40 -452 102 -77 25 -144
48 -150 49 -5 1 -80 -21 -165 -50z m307 -34 c176 -58 373 -100 466 -100 l66 0
8 -47 c14 -86 7 -351 -12 -458 -32 -187 -103 -370 -196 -507 -50 -74 -61 -80
-53 -31 8 53 -11 145 -44 218 -117 249 -453 312 -658 123 -90 -83 -123 -158
-133 -297 l-6 -95 -51 75 c-97 140 -166 312 -200 499 -19 100 -26 438 -11 493
7 26 10 27 73 27 95 0 295 43 458 99 77 27 141 49 142 50 0 0 68 -21 151 -49z
m-44 -742 c34 -8 42 -16 64 -64 14 -30 22 -61 19 -69 -3 -8 -28 -26 -56 -40
l-51 -26 -96 24 -97 23 -14 43 c-13 40 -13 44 9 67 12 13 45 32 73 43 50 19
71 19 149 -1z m121 -49 c49 -33 103 -93 130 -146 23 -45 20 -53 -14 -53 -25 0
-42 12 -85 58 -30 31 -55 64 -55 72 0 8 -9 34 -20 58 -10 23 -16 42 -11 42 4
0 29 -14 55 -31z m-212 -146 l57 -15 20 -68 c12 -38 21 -72 21 -78 0 -5 -27
-39 -61 -76 -68 -73 -79 -77 -166 -51 -48 14 -52 18 -67 63 -8 26 -20 69 -26
96 l-11 49 53 54 c58 59 57 59 180 26z m-281 -74 c36 -11 39 -15 50 -68 6 -31
18 -74 27 -95 15 -38 15 -41 -14 -93 -15 -29 -34 -51 -40 -49 -7 3 -30 10 -52
17 -45 13 -55 29 -73 118 -14 64 -6 105 29 159 17 25 21 26 73 11z m653 -11
c11 -44 5 -164 -12 -213 -14 -42 -21 -51 -44 -53 -24 -3 -28 0 -28 21 0 13 -7
47 -16 77 -15 50 -15 56 6 121 22 67 24 69 55 69 25 0 34 -5 39 -22z m-175
-104 c37 -6 45 -12 57 -40 7 -18 17 -58 20 -88 l7 -56 -50 -50 c-45 -45 -55
-50 -94 -50 -24 0 -61 5 -82 11 -42 11 -51 27 -62 102 -7 47 -7 47 56 118 49
55 67 69 83 65 12 -3 41 -8 65 -12z m-89 -293 c61 -7 78 -29 36 -49 -41 -19
-146 -34 -190 -27 -67 11 -76 15 -76 39 0 18 10 26 63 43 46 15 68 17 87 10
14 -5 50 -12 80 -16z"/>
</g>
</svg>
